<mxfile host="65bd71144e">
    <diagram id="2nVJZ9vy8d7ukR8cst8E" name="systems">
        <mxGraphModel dx="248" dy="627" grid="1" gridSize="10" guides="1" tooltips="1" connect="1" arrows="1" fold="1" page="1" pageScale="1" pageWidth="850" pageHeight="1100" math="0" shadow="0">
            <root>
                <mxCell id="0"/>
                <mxCell id="1" parent="0"/>
                <mxCell id="2" value="" style="rounded=1;whiteSpace=wrap;html=1;" parent="1" vertex="1">
                    <mxGeometry x="50" y="67" width="460" height="450" as="geometry"/>
                </mxCell>
                <mxCell id="3" value="Docker Compose" style="text;html=1;strokeColor=none;fillColor=none;align=center;verticalAlign=middle;whiteSpace=wrap;rounded=0;fontSize=25;" parent="1" vertex="1">
                    <mxGeometry x="140" y="70" width="280" height="70" as="geometry"/>
                </mxCell>
                <mxCell id="5" value="API&lt;br&gt;（Express）" style="rounded=0;whiteSpace=wrap;html=1;fontSize=15;fillColor=#6d8764;strokeColor=#3A5431;fontColor=#ffffff;" parent="1" vertex="1">
                    <mxGeometry x="80" y="377" width="140" height="70" as="geometry"/>
                </mxCell>
                <mxCell id="10" value="" style="fontColor=#0066CC;verticalAlign=top;verticalLabelPosition=bottom;labelPosition=center;align=center;html=1;outlineConnect=0;fillColor=#CCCCCC;strokeColor=#6881B3;gradientColor=none;gradientDirection=north;strokeWidth=2;shape=mxgraph.networks.server;fontSize=15;" parent="1" vertex="1">
                    <mxGeometry x="325" y="347" width="90" height="100" as="geometry"/>
                </mxCell>
                <mxCell id="11" value="" style="fontColor=#0066CC;verticalAlign=top;verticalLabelPosition=bottom;labelPosition=center;align=center;html=1;outlineConnect=0;fillColor=#CCCCCC;strokeColor=#6881B3;gradientColor=none;gradientDirection=north;strokeWidth=2;shape=mxgraph.networks.storage;fontSize=15;" parent="1" vertex="1">
                    <mxGeometry x="108" y="167" width="100" height="100" as="geometry"/>
                </mxCell>
                <mxCell id="12" value="DB（MySQL）" style="text;html=1;strokeColor=none;fillColor=none;align=center;verticalAlign=middle;whiteSpace=wrap;rounded=0;fontSize=15;" parent="1" vertex="1">
                    <mxGeometry x="73" y="267" width="170" height="30" as="geometry"/>
                </mxCell>
                <mxCell id="13" value="Web Server&lt;br&gt;（Nginx）" style="text;html=1;strokeColor=none;fillColor=none;align=center;verticalAlign=middle;whiteSpace=wrap;rounded=0;fontSize=15;" parent="1" vertex="1">
                    <mxGeometry x="285" y="457" width="170" height="30" as="geometry"/>
                </mxCell>
                <mxCell id="14" value="HTML&lt;br&gt;（React）" style="shape=note;whiteSpace=wrap;html=1;backgroundOutline=1;darkOpacity=0.05;fontSize=15;fillColor=#647687;fontColor=#ffffff;strokeColor=#314354;" parent="1" vertex="1">
                    <mxGeometry x="361" y="323" width="60" height="80" as="geometry"/>
                </mxCell>
                <mxCell id="15" value="" style="fontColor=#0066CC;verticalAlign=top;verticalLabelPosition=bottom;labelPosition=center;align=center;html=1;outlineConnect=0;fillColor=#CCCCCC;strokeColor=#6881B3;gradientColor=none;gradientDirection=north;strokeWidth=2;shape=mxgraph.networks.monitor;fontSize=15;" parent="1" vertex="1">
                    <mxGeometry x="580" y="267" width="110.77" height="90" as="geometry"/>
                </mxCell>
                <mxCell id="16" value="Client" style="text;html=1;strokeColor=none;fillColor=none;align=center;verticalAlign=middle;whiteSpace=wrap;rounded=0;fontSize=25;" parent="1" vertex="1">
                    <mxGeometry x="565.39" y="366" width="140" height="30" as="geometry"/>
                </mxCell>
                <mxCell id="19" value="" style="shape=flexArrow;endArrow=classic;startArrow=classic;html=1;fontSize=25;exitX=0;exitY=0;exitDx=60;exitDy=55;exitPerimeter=0;" parent="1" edge="1">
                    <mxGeometry width="100" height="100" relative="1" as="geometry">
                        <mxPoint x="426" y="374" as="sourcePoint"/>
                        <mxPoint x="575" y="325" as="targetPoint"/>
                    </mxGeometry>
                </mxCell>
                <mxCell id="28" value="80/tcp" style="edgeLabel;html=1;align=center;verticalAlign=middle;resizable=0;points=[];fontSize=12;" parent="19" vertex="1" connectable="0">
                    <mxGeometry x="0.0281" y="2" relative="1" as="geometry">
                        <mxPoint as="offset"/>
                    </mxGeometry>
                </mxCell>
                <mxCell id="20" value="" style="shape=flexArrow;endArrow=classic;startArrow=classic;html=1;fontSize=25;entryX=0;entryY=0.15;entryDx=0;entryDy=0;entryPerimeter=0;" parent="1" edge="1">
                    <mxGeometry width="100" height="100" relative="1" as="geometry">
                        <mxPoint x="223" y="416" as="sourcePoint"/>
                        <mxPoint x="321" y="372" as="targetPoint"/>
                    </mxGeometry>
                </mxCell>
                <mxCell id="21" value="" style="shape=flexArrow;endArrow=classic;startArrow=classic;html=1;fontSize=25;" parent="1" edge="1">
                    <mxGeometry width="100" height="100" relative="1" as="geometry">
                        <mxPoint x="153.5" y="367" as="sourcePoint"/>
                        <mxPoint x="154" y="310" as="targetPoint"/>
                    </mxGeometry>
                </mxCell>
                <mxCell id="22" value="phpadmin" style="rounded=0;whiteSpace=wrap;html=1;fontSize=15;fillColor=#76608a;strokeColor=#432D57;fontColor=#ffffff;" parent="1" vertex="1">
                    <mxGeometry x="325" y="180" width="110" height="60" as="geometry"/>
                </mxCell>
                <mxCell id="23" value="" style="shape=flexArrow;endArrow=classic;startArrow=classic;html=1;fontSize=25;entryX=0;entryY=0.5;entryDx=0;entryDy=0;" parent="1" edge="1">
                    <mxGeometry width="100" height="100" relative="1" as="geometry">
                        <mxPoint x="217" y="214" as="sourcePoint"/>
                        <mxPoint x="312" y="214" as="targetPoint"/>
                    </mxGeometry>
                </mxCell>
                <mxCell id="24" value="" style="shape=flexArrow;endArrow=classic;startArrow=classic;html=1;fontSize=25;exitX=1;exitY=0.5;exitDx=0;exitDy=0;" parent="1" edge="1">
                    <mxGeometry width="100" height="100" relative="1" as="geometry">
                        <mxPoint x="454" y="228" as="sourcePoint"/>
                        <mxPoint x="559" y="278" as="targetPoint"/>
                    </mxGeometry>
                </mxCell>
                <mxCell id="29" value="8080/tcp" style="edgeLabel;html=1;align=center;verticalAlign=middle;resizable=0;points=[];fontSize=12;" parent="24" vertex="1" connectable="0">
                    <mxGeometry x="-0.0152" y="1" relative="1" as="geometry">
                        <mxPoint as="offset"/>
                    </mxGeometry>
                </mxCell>
            </root>
        </mxGraphModel>
    </diagram>
</mxfile>